/* XPM */
static char *_5e638a0472642eedce0a3e84064f247[] = {
/* columns rows colors chars-per-pixel */
"16 16 191 2 ",
"   c #2A343C",
".  c #2B343D",
"X  c #2B363F",
"o  c #2D353E",
"O  c #30383E",
"+  c #484036",
"@  c #4B4437",
"#  c #534B3A",
"$  c #524C3B",
"%  c #564F3B",
"&  c #594F3D",
"*  c #5B543B",
"=  c #5C543C",
"-  c #695B3C",
";  c #76633C",
":  c #77653C",
">  c #76663C",
",  c #343F43",
"<  c #374144",
"1  c #454943",
"2  c #444B46",
"3  c #494940",
"4  c #4B4D43",
"5  c #4A4F42",
"6  c #4D4F43",
"7  c #404A48",
"8  c #5B5940",
"9  c #4F575A",
"0  c #535C5A",
"q  c #625C44",
"w  c #665C45",
"e  c #645F48",
"r  c #5F635A",
"t  c #6A6045",
"y  c #696446",
"u  c #60604E",
"i  c #6C654B",
"p  c #69664E",
"a  c #6C684B",
"s  c #6D694B",
"d  c #6C6A4E",
"f  c #7C6A44",
"g  c #7D6B44",
"h  c #746F4C",
"j  c #796E4D",
"k  c #716D52",
"l  c #71725B",
"z  c #676D66",
"x  c #83754E",
"c  c #8A7A4E",
"v  c #8C7F50",
"b  c #817A5D",
"n  c #B1893D",
"m  c #BD8E3D",
"M  c #DCA03A",
"N  c #908250",
"B  c #988958",
"V  c #9B8F5F",
"C  c #A28142",
"Z  c #B38E40",
"A  c #B48E43",
"S  c #A48F53",
"D  c #A7935A",
"F  c #868673",
"G  c #AB9A61",
"H  c #B9A362",
"J  c #C49543",
"K  c #CF9C45",
"L  c #CCA04F",
"P  c #D9A647",
"I  c #D5A74D",
"U  c #DDAD4E",
"Y  c #C3A053",
"T  c #C8A250",
"R  c #C7A75A",
"E  c #C8A95A",
"W  c #D4A557",
"Q  c #D3A954",
"!  c #D6A857",
"~  c #D8AE56",
"^  c #D9AF56",
"/  c #D2A65B",
"(  c #D1A45C",
")  c #D7A95E",
"_  c #D6AA5E",
"`  c #D8A85A",
"'  c #DAAA5A",
"]  c #CEB05C",
"[  c #D4B05C",
"{  c #D9B159",
"}  c #DBB159",
"|  c #DEB458",
" . c #DEB55A",
".. c #EBB952",
"X. c #E4B959",
"o. c #E4B95B",
"O. c #E3BB5E",
"+. c #EBBC58",
"@. c #EABC5B",
"#. c #EBBE5F",
"$. c #CAA566",
"%. c #D7B362",
"&. c #D7B564",
"*. c #DCB464",
"=. c #DDB665",
"-. c #DEBA62",
";. c #D7BB6C",
":. c #D7BD7A",
">. c #DBBF79",
",. c #E7BC62",
"<. c #E5BF63",
"1. c #E2BA64",
"2. c #E2BD66",
"3. c #E4BC66",
"4. c #E5BE75",
"5. c #EBC463",
"6. c #EAC669",
"7. c #EFC668",
"8. c #EBC96E",
"9. c #F3C863",
"0. c #F7C860",
"q. c #F5D16F",
"w. c #FFD66D",
"e. c #E5C272",
"r. c #E6C471",
"t. c #E7C471",
"y. c #E4C174",
"u. c #EAC672",
"i. c #ECC875",
"p. c #E8CC76",
"a. c #E6C578",
"s. c #E3C77C",
"d. c #E8C67F",
"f. c #F1CB7D",
"g. c #F1CC7C",
"h. c #F1D074",
"j. c #F5D375",
"k. c #F5D377",
"l. c #F5D27A",
"z. c #FFE078",
"x. c #828782",
"c. c #9C9987",
"v. c #D9BA81",
"b. c #D8C081",
"n. c #D9C083",
"m. c #E7C680",
"M. c #E9CF81",
"N. c #EDCF81",
"B. c #E0CA88",
"V. c #EACE8A",
"C. c #ECCF8A",
"Z. c #F0CF8B",
"A. c #EED383",
"S. c #F3D681",
"D. c #F7D983",
"F. c #FDDE80",
"G. c #F8DB87",
"H. c #FADA87",
"J. c #FADD84",
"K. c #FCDD86",
"L. c #F0D289",
"P. c #F1D28B",
"I. c #F0D38C",
"U. c #EFD698",
"Y. c #F3D691",
"T. c #F5D991",
"R. c #F8DF97",
"E. c #F5DB99",
"W. c #F4DA9B",
"Q. c #F5DD9F",
"!. c #F9DE98",
"~. c #FFE688",
"^. c #FCE295",
"/. c #FFE897",
"(. c #FDE299",
"). c #FDE29A",
"_. c #FFEC9C",
"`. c #EED8A1",
"'. c #F5E2A3",
"]. c #F0E0A5",
"[. c #FBE2A3",
"{. c #FAE1A4",
"}. c #FBE3A7",
"|. c #F9E1AB",
" X c #FAE3AA",
".X c #FFECA9",
"XX c #FBEAAF",
"oX c #FFECB7",
"OX c #FFEFBE",
"+X c #FFFAC1",
"@X c None",
/* pixels */
"@X@X@X@X@X@X_ ! W / @X@X@X@X@X@X",
"@X@X@X@X4.A ; % $ - C L @X@X@X@X",
"@X@X@Xa.p < l V B i o 3 Y $.@X@X",
"@X@X<.5 z ]._.~.z.w.O.w X R @X@X",
"@X3.h r .XU.W.(.K.h.6.0.t 1 %.@X",
"@X] , s.e.V.|.}.^.J.8. .X.O S @X",
"m.N u 9.Q T.n.n.>.:.S.^ ..j e y.",
"g.s x +.2.G.XX'.^.|.!.e.@.D 5 t.",
"g.i f 7.^ k./.L.Z.OX}.*.l.G 6 u.",
"d.v # #.{ 5.F.N.V.oXY.*.G.b t i.",
"@XE . J ,.X.q.p.M.(.P.P.[.9 H @X",
"@X1.d + M U -.k.D.A.Q.+Xc.x.E.@X",
"@X@X .2 @ m T [ &.;.B.F 0 `.@X@X",
"@X@X@XI q X & f c k 7 8 { v.@X@X",
"@X@X@X@XK n : * * > Z P @X@X@X@X",
"@X@X@X@X@X@X( ' ' _ @X@X@X@X@X@X"
};
