/* XPM */
static char *_633b108255f429ecb22eb89a6dda95d[] = {
/* columns rows colors chars-per-pixel */
"64 64 256 2 ",
"   c #0A1E3C",
".  c #061D3D",
"X  c #101F3B",
"o  c #0D223D",
"O  c #1B2536",
"+  c #12243C",
"@  c #16293D",
"#  c #1A2A3C",
"$  c #182538",
"%  c #1E282F",
"&  c #232A35",
"*  c #202B39",
"=  c #262A34",
"-  c #23313B",
";  c #2C3337",
":  c #333334",
">  c #373A37",
",  c #31312F",
"<  c #463B2E",
"1  c #473F35",
"2  c #3C433C",
"3  c #594A2E",
"4  c #484638",
"5  c #554B36",
"6  c #58533B",
"7  c #655738",
"8  c #745D34",
"9  c #6E542E",
"0  c #6E653E",
"q  c #7A6336",
"w  c #0A1E40",
"e  c #0E2342",
"r  c #132642",
"t  c #162941",
"y  c #182941",
"u  c #172B49",
"i  c #1F314E",
"p  c #25354A",
"a  c #2B3A4D",
"s  c #364252",
"d  c #394A62",
"f  c #4C5144",
"g  c #434D57",
"h  c #50554C",
"j  c #6A6544",
"k  c #796C43",
"l  c #7C7243",
"z  c #726F59",
"x  c #47566A",
"c  c #4E5D6F",
"v  c #596779",
"b  c #54616A",
"n  c #697379",
"m  c #5F604A",
"M  c #B9761C",
"N  c #886C3A",
"B  c #8E713C",
"V  c #98783B",
"C  c #926B2E",
"Z  c #A97C31",
"A  c #AF7A29",
"S  c #877643",
"D  c #937B43",
"F  c #8B7F5A",
"G  c #807F6E",
"H  c #BB822D",
"J  c #BA8929",
"K  c #BA8633",
"L  c #BB8C3D",
"P  c #B68737",
"I  c #B5893A",
"U  c #C5892C",
"Y  c #C48B33",
"T  c #C28E3B",
"R  c #C78C32",
"E  c #CB9335",
"W  c #C5933C",
"Q  c #CB943B",
"!  c #CF993D",
"~  c #C59636",
"^  c #D39B3D",
"/  c #D89C3B",
"(  c #D18B27",
")  c #988649",
"_  c #9C8C54",
"`  c #8C844C",
"'  c #A88845",
"]  c #BC8D42",
"[  c #B48A42",
"{  c #AE964C",
"}  c #BE9244",
"|  c #B79449",
" . c #A89455",
".. c #BC9C54",
"X. c #B49C5B",
"o. c #B79757",
"O. c #A98851",
"+. c #BBA25A",
"@. c #BBA04C",
"#. c #AC9E60",
"$. c #B79B64",
"%. c #BAA665",
"&. c #B8A878",
"*. c #C49443",
"=. c #CC9B43",
"-. c #C29B4C",
";. c #CC9D49",
":. c #C59847",
">. c #D39D42",
",. c #D09F48",
"<. c #C39B53",
"1. c #C69C56",
"2. c #CCA24C",
"3. c #CBA449",
"4. c #D5A245",
"5. c #DAA443",
"6. c #D3A44B",
"7. c #D5AA4E",
"8. c #DCAB4C",
"9. c #D9A64B",
"0. c #C5A352",
"q. c #CBA453",
"w. c #CDAA55",
"e. c #C5A45A",
"r. c #CDA55A",
"t. c #CDAB5B",
"y. c #C2AE55",
"u. c #D3AB53",
"i. c #DAAD52",
"p. c #D3AC5B",
"a. c #D5A755",
"s. c #CBB35B",
"d. c #DDB255",
"f. c #D6B25E",
"g. c #DBB35B",
"h. c #DDBA5D",
"j. c #D6B354",
"k. c #DFB04F",
"l. c #E2AD4B",
"z. c #E3AA46",
"x. c #E4B14C",
"c. c #E9B64E",
"v. c #E2B455",
"b. c #E2B65A",
"n. c #E4BB5C",
"m. c #E9BC5C",
"M. c #E9BB55",
"N. c #F1BE58",
"B. c #CCA963",
"V. c #CCAA6C",
"C. c #C4A767",
"Z. c #D3AD62",
"A. c #D2AD6C",
"S. c #CBB168",
"D. c #D5B362",
"F. c #DBB563",
"G. c #DDBA63",
"H. c #DDBA6B",
"J. c #D6B66C",
"K. c #CAAC73",
"L. c #D2AE72",
"P. c #C8B579",
"I. c #DCBE74",
"U. c #D6B978",
"Y. c #E3BD62",
"T. c #E3BE6A",
"R. c #E7BB62",
"E. c #E3BC75",
"W. c #C09C63",
"Q. c #ECC15D",
"!. c #E4C15B",
"~. c #F2C65C",
"^. c #DDC17B",
"/. c #D6C277",
"(. c #DDC36C",
"). c #E6C164",
"_. c #ECC464",
"`. c #EECA65",
"'. c #E4C36B",
"]. c #EAC46B",
"[. c #EDCA6B",
"{. c #E3C961",
"}. c #F2CD6C",
"|. c #F4C965",
" X c #F4D16D",
".X c #FAD46D",
"XX c #FFDC6F",
"oX c #E3C373",
"OX c #EDCC74",
"+X c #E4C57B",
"@X c #E6C97C",
"#X c #EBCC7C",
"$X c #E8C876",
"%X c #F1CF73",
"&X c #F6D373",
"*X c #F9D674",
"=X c #FCDA76",
"-X c #F4D47B",
";X c #FBDA7B",
":X c #F9D87C",
">X c #EFD17D",
",X c #FFE27D",
"<X c #B3AC8C",
"1X c #8D8E86",
"2X c #CAB787",
"3X c #D8BC85",
"4X c #D0BB93",
"5X c #DAC486",
"6X c #CFC398",
"7X c #EBCB83",
"8X c #E4CB8D",
"9X c #EBCD8B",
"0X c #E3C686",
"qX c #EDD38B",
"wX c #EBD183",
"eX c #F3D583",
"rX c #F5DA84",
"tX c #FADC83",
"yX c #F6DA8D",
"uX c #FBDE8C",
"iX c #F1D48C",
"pX c #E6CC94",
"aX c #EAD59B",
"sX c #E8D497",
"dX c #F2D692",
"fX c #F4DB94",
"gX c #FADF92",
"hX c #F4DC9A",
"jX c #FEE285",
"kX c #FEE28C",
"lX c #FFE88A",
"zX c #FDE294",
"xX c #FDE39B",
"cX c #FFE997",
"vX c #FFF19E",
"bX c #E3CDA3",
"nX c #E9D6A4",
"mX c #F3DCA3",
"MX c #F1DFA9",
"NX c #F4DFB3",
"BX c #FDE4A3",
"VX c #FFEAA4",
"CX c #FDE6AC",
"ZX c #FEEAAB",
"AX c #F6E1A8",
"SX c #FDE7B2",
"DX c #FEEAB4",
"FX c #FEEBB9",
"GX c #F5E3B5",
"HX c #FFF1BC",
"JX c #FFF0B4",
"KX c #FFF2A9",
"LX c #DDC7A2",
"PX c #FFEFC3",
"IX c #FFF2C2",
"UX c None",
/* pixels */
"UXUXUXUXUXUXUXUXUXUXUXUXUXUXUXUXUXUXUXUXUXUXUXUXUXUXUXUXUXUXUXUXUXUXUXUXUXUXUXUXUXUXUXUXUXUXUXUXUXUXUXUXUXUXUXUXUXUXUXUXUXUXUXUX",
"UXUXUXUXUXUXUXUXUXUXUXUXUXUXUXUXUXUXUXUXUXUXUXUXUXUX| <.} L ] ] L ] ] L | o.o.UXUXUXUXUXUXUXUXUXUXUXUXUXUXUXUXUXUXUXUXUXUXUXUXUX",
"UXUXUXUXUXUXUXUXUXUXUXUXUXUXUXUXUXUXUXUXUXUXo.-.*.W T R Q K W Q H *.Y P T K T L ] <.UXUXUXUXUXUXUXUXUXUXUXUXUXUXUXUXUXUXUXUXUXUX",
"UXUXUXUXUXUXUXUXUXUXUXUXUXUXUXUXUXUXUXUXW.=.=.Q W =.Q =.=.=.=.>.=.=.=.W =.T L L P *.P :.$.UXUXUXUXUXUXUXUXUXUXUXUXUXUXUXUXUXUXUX",
"UXUXUXUXUXUXUXUXUXUXUXUXUXUXUXUXUXUX1.=.=.! 4.^ 6.9.i.v.v.v.v.v.v.v.k.v.i.v.9.9.:.L *.P *.] W.UXUXUXUXUXUXUXUXUXUXUXUXUXUXUXUXUX",
"UXUXUXUXUXUXUXUXUXUXUXUXUXUXUXUXLX3Xp.9.=.8.j.v.b.i.3.[ V N 0 7 7 7 8 N V [ 2.d.m.d.u.:.L } L 1.W.UXUXUXUXUXUXUXUXUXUXUXUXUXUXUX",
"UXUXUXUXUXUXUXUXUXUXUXUXUXUXW.U.pX0XH.i.b.m.b.-.D 7 > * @ + o + o + + + @ & : 6 B :.v.R.u.2.] } } 1.UXUXUXUXUXUXUXUXUXUXUXUXUXUX",
"UXUXUXUXUXUXUXUXUXUXUXUXUX2Xr.g.@X9X+X_.g.' 6 ; + X o r @ y t @ @ t r @ @ r + + X , 7 ' b._.g.*.q.I r.$.UXUXUXUXUXUXUXUXUXUXUXUX",
"UXUXUXUXUXUXUXUXUXUXUXUX4X8XH.R.#XqX].{ 5 @ o r r t + w w w X + o o o e e t t y @ r o O 3 ' R.[.q.0.I q.W.UXUXUXUXUXUXUXUXUXUXUX",
"UXUXUXUXUXUXUXUXUXUXUXL.7X0X9XiXrXJ.j @ o + t r w X - f j S ) _ ) D l 7 4 = + w r t t t e % 9 0. XF.q.| -.V.UXUXUXUXUXUXUXUXUXUX",
"UXUXUXUXUXUXUXUXUXUXZ.g.H.7X9X:X#.2 . t @ e   ; j X.(.*X;X;X;X;X=X*X*X|.m.w.) 7 ; w t t @ r + : ' [.].r.q.-.Z.UXUXUXUXUXUXUXUXUX",
"UXUXUXUXUXUXUXUXUXA.b.b.].%X|.S @ o @ t . > _ @XlXcXkXjXtX;X*X*X*X&X X X}..X|.~.2.N : o r @ @ + % N [. Xr.r...L.UXUXUXUXUXUXUXUX",
"UXUXUXUXUXUXUXUXA.u.G.[.%X_.0   r t w # ` rXVXBXxXgXuXuXtXtX:X*X*X*X&X%X}.|.[._.|.|.u.N % w r y r $ 8 ].:Xr.p...K.UXUXUXUXUXUXUX",
"UXUXUXUXUXUXUXK.i.Y.'.&X|.j o @ t . 4 /.KXSXBXxXBXxXgXuXuXtX:X:X*X*X&X&X%X}.|.[._.m._.~.*.1 X r y r + 9 [.-X0.r.B.UXUXUXUXUXUXUX",
"UXUXUXUXUXUXK.i.h.Y.%X Xk   @ r . j fXHXFXZXCXBXBXxXxXgXgXyXtXtX:X*X*X&X&X X}.|.[.]._.m.~.v.8 $ t @ r $ q  XOXq.-.A.UXUXUXUXUXUX",
"UXUXUXUXUXUXA.b.n.OX.X)   @ r   k xXHXFXJXSXSXCXBXBXBXxXgXuXuXtXtX:X*X*X&X*X X X|.|._._.m._.N.N + t y o O D *X].q.| U.UXUXUXUXUX",
"UXUXUXUXUXV.g.n.[.*Xy.# r @ . j xXJXDXFXFXGXnXSXmXsX0XqXxXzXgXuXuXrX;X=X*Xh.(.'.}._.n.`._.m.m.Q.B O r @ r = 0.&Xp.f.1.UXUXUXUXUX",
"UXUXUXUXUXa.n.R. X`.2 o t o f eXZXCXSXDXFXpX+X8XE.aXF.9XBXzXgXgXuXtXrX=X=Xu.(.sX).p.J.[._._.m.m.N.q X t @ o 4 _.OX0.p.B.UXUXUXUX",
"UXUXUXUXC.Y.b.[.=X` . t e ; I.VXBXBXAXDX8X#XCX3XeXAXBXCXBXxXxXhXgXuXtXrX:X;XOXgX).n.iX$X_._._.).m.m.3 r t t $ V =X(.| t.UXUXUXUX",
"UXUXUXUXf.7.).-X!.- o t +  .cXxXxXBXB.dX8X^.P.+XaXSXCXCXBXBXxXzXgXuXuXtXtX;X=X%X(.h.D.R.[.;.g._.R.m.9.: + t e , f. XG.0.B.UXUXUX",
"UXUXUXL.k.).OXXXl w t e 6 tXzXzXxXhX;.T.8Xr.n.OXCXFXSXCXCXBXBXxXzXzXkXuXtX;X:X:X X].h.j.h.=.v.|._.m.~.V + y t + N =Xf.p.Z.UXUXUX",
"UXUXUXZ.b.m.&X{.- + t # +.kXuXgXdXxX6.i.8XhXmXSXFXDXSXSXCXCXBXBXxXzXlXkXkXkXtX:X=X%X X[.0.>.b.|._._.Q.M.4 r # o > G.*X0.q.L.UXUX",
"UXUX&.h.u.[.XX)   y w 6 =XuXkXI.L zXH.H.aXI.0XDXFXPXFXDXSXCXCXBXBXcXxXlXlXkXjXjX;X*Xp.'.(.3.[.u.L _._.|.[ $ r r $ ' *XT.q.B.UXUX",
"UXUXC.i.n.%X Xf X r + { jXtXkXq.H oXS.A.mX[.dXZXmXU.PXPXIXHXHXJXZXZXZXVXvXvXhX@XuX;Xb.OXhXw.G.*.U n.|._.M.1 e @ o 7  X'.p.D.UXUX",
"UXUXZ.b.Q.*Xs.# @ e > '.;XtXjXq.( -.[ -XBXfXBXCX8XJ p.I.^.^.^.^.^.^.I.oX+X+XD.;.zX;X=X%XxXG.[ ~ R ).[._.|.B o t o , f.*Xq.0.V.UX",
"UXUXf.u.'.=X) o @ o j XX*XtXjXG.U 2.7X(.@XxXxXCXU.~ @.o.#.#.+.Q ~ -.%.$.X.o.*.2.fXtXtX-Xh.].h.R Q }. X}.|.q.O t @ $ { =XY.t.e.UX",
"UX2Xi.n.}..Xm   # + ) =X;Xu.n.tXW p.0.=.$XzXzXBXG.Z.<X4X6X6X2Xw.4./.6X2X2X&.&.3.iXgXuX:Xw.3.u.W n. X*.b. XQ.1 e t o B =Xh.p.D.UX",
"UXK.i.b.&X`.2 o r O 0.=X=X~ M _.G.K / Y.uXgXzXsXD.6XGXHXIXHXsXj.j.qXJXZXZXVX3X%.wXzXuXuXOX6.^ W  X~ M n.}..X8 w @ o 6 *X'.q.r.UX",
"UXV.9.g.*Xh.- r r : h..X&Xb.M R 3.8.'.$XrXuXzX0X&.MXHXHXHXDXsX(.).sXSXBXCXCXxX&.5XxXgXgX#X$Xn.4.W M E  X}..XD X t + 4 [.}.h.p.UX",
"UXL.v._.=Xy.# @ e 4 R.|.}.*X7.M =.;X0XG.-XuXuXuXhXJXHXHXHXJXnX$X[.fXZXBXBXCXCXhXdXxXgXzXF.(.eX'.H U _.;X&XXX| + t + > G.}.w.w.UX",
"UXA.i.n.;X+.@ @ e 5 m.[.b._. Xu.2.'.hX-X-XtXtXgXxXZXJXJXJXFXnXrX*XhXSXVXZXCXCXBXBXxXxXcXoXwXfX'.=.%X;X).[.=X0.O t r : G.&Xg.u.bX",
"UXA.7.Y.;X{ + @ e 6 N._.*.g.wX[.} h.xXtX=XtXrXgXcXVXZXJXDXDXnXrX;XBXDXZXAXSXZXCXBXBXxXxXfXqXgXu.G.eX#X6._.=Xs.# r r ; D.&Xb.g.bX",
"UXJ.n._.;X{ o @ + 5 N.Q.u.Y.VX'.P k.tXw.$X;XtXtXzXcXBXVXZXSXnX-X%XhXJXSXCXDXSXCXCXBXBXBXJ.0XuX=.q.#XBXm.&XXXs.* t r ; h.>Xu.3.bX",
"UXA.7.b.;X{ + @ e 5 c.n.n.G.BX_.P }.p.=.`.;X:XtXjXzXzXxXVXCXnXi.5.7XFXSXDXDXDXSXCXCXBXBXi.,.yXH.K tXgX-X=X,Xt.# t o > G.&Xh.j.UX",
"UXL.7.b.=Xy.@ @ r 1 8.v.m.R.$Xh.J h.=.8.[.;X:XrXtXyXkXzXxXVXaXQ ( E.HXDXGXDXFXDXSXCXCXCXF.5.H.B.H >XgXtX;X,Xe.@ t o 4 G.&Xn.g.UX",
"UXA.v._.*Xs.- @ r : 4.v.i.d.b.n.6.} 4.8.'.h.=X;X:XjXuXgXcXVXaX>.( T.FXSXDXFXFXFXDXDXaX0XI.5.6.<.#XuXwX#X>XjXO.+ t e 5  X[.u.q.UX",
"UXK.6.i.*XY.> o r # L l.P h.8X>Xb.~ 4.n.g.b. X=X:X;XtXkXzXxXsX7./ E.JXCXDXDXFXFXSXFXE.v.9Xa.E Z.fXsX8X7.Z.lXS e @ o 0 *X[.!.f.UX",
"UX2Xd.d.}.}.f e t + B c.6.n.ZXxXd.W 8.].i.m.}.=X*X:X:XtXkXcXsXF.v.7XCXCXSXCXSXGXFXFX].b.7XhX,.r.).BXxXOXyXjX6 e t X ) ;X`.b.p.UX",
"UXUXr.v. XXXk X y e 3 z.8.8.T.OXi.~ 7.n.d.m.[.&X*X;X:X;XtXkXaX$X].dXBXAXBXAXCXZXSXSX].c.#XnXw.p.OXxXxXzXlX@X> o @ O 0.;Xh.j.Z.UX",
"UXUXZ.6.n.;X{ + y y : Q 8.4.P u.H.oX2.i.j.n.`.&X&X*X*X:XzXcXxXuXtXgXVXBXhXBXBXCXSXFX].M.@XB.0XMX0Xp.U.xXxXX.o t o 2 _. X_.G.B.UX",
"UXUXV.g.v.*XY.> o t + C z.5.W Q.xXZX'.:.i.n.`.}. X&X=X%X/.5X/.P.P.2X/.8XzXxXBXBXAXDX9Xn.r.q.eXSX;Xd.qXBXlXj e u + l =X Xm.v.UXUX",
"UXUXK.6.d.&X*Xj o t e 1 / 5.5.6.wXZXtX4.9.n._.|.}.}.*X*XS.X.%.%.C.C.%.U.hXzXxXBXBXCXCXg.! l.;XCXfXhXCXZX^.a i i p e.tX_.d.T.UXUX",
"UXUXUXF.4.n.,X@.@ + t @ Z 5.>.5.9.G.].i.6.i.Y._.`.}. X&X*X;X;X,XjXjXgXgXuXzXzXxXBXBXI.H.U.eXmXSXSXSXCXZXF i s a z -X=XOXY.L.UXUX",
"UXUXUXV.g.d. X}.6 o t e < ~ ^ 4.4./ 5.k.v.u.g.Y.'.|.}.%X&X*X=X;X:XtXtXtXuXgXzXcXdXE.oXAXDXFXFXFXSXSXHX5Xg d x d %.zXeX[.T.UXUXUX",
"UXUXUXUX6.i.[.;X| @ @ @ $ 8 / ^ ^ >.^ 4.8.d.i.!.'.)._.|. X&X:X*X:X:X;XtXkXuXqX@X$XeXBXCXCXSXFXDXDXFXZXz d x c G yXxXwX$X^.UXUXUX",
"UXUXUXUXU.6.6.=X X6 o # r = C / ^ ^ ^ 4.4.d.v.v.n.[.(.'.[.%X X*X*X*X-XeX@X^.oX>XuXxXCXCXSXDXDXDXFXHX&.g x v v 5XCXhXyX0XUXUXUXUX",
"UXUXUXUXUXi.v.n.,Xs.; + # e : K / ^ >.4.4.4.8.j.b.m.).'.@XqXdXdXhXfXsXdX7X>XtXzXBXCXSXCXSXDXDXFXHX6Xg x v v <XZXCXmX9XpXUXUXUXUX",
"UXUXUXUXUXV.6.n.[.=X) + t y e < Y / ^ ^ >.4.9...D e.g.m.n.'.OX>XqXrXjX=X;XkXBXP.nXsXJXSXDXFXFXFXwXh d c v 1XMXFXSXmXmXUXUXUXUXUX",
"UXUXUXUXUXUXF.W R.*X|.j o t t e < H / ^ >.^ >.w. .o. .m.v.N.d.T..X'.%.S.J.kXqX%._ #.5XFXJXGXJXwXh i x c n bXHXPXGXNXbXUXUXUXUXUX",
"UXUXUXUXUXUXK.p.=.m.*Xn.6 o t t + > Z / ^ Q 5.{ .... ...r.0.s.r.b._ X.C.#.S.S.%.%.#.5XHXFXKX/.2 u s d c 3XCXAXGXNXnXUXUXUXUXUXUX",
"UXUXUXUXUXUXUXe.i.>.R.*Xj.4 o r t e % N ~ E =.[ ;.{ o. .#._ %.e.t.X.Y.F.%.#.%.X.C./.AXJXcX#.- w p a g P.xXmXmXmXnXUXUXUXUXUXUXUX",
"UXUXUXUXUXUXUXUX1.4.9.b.*Xw.5 o t @ r + 3 Z ^ ^ 4.} :... ...X.0.i. . .o.+.X.+.J.wXcXjXJ.m . r @ t s %.yXdXdXpXaXbXUXUXUXUXUXUXUX",
"UXUXUXUXUXUXUXUXUXa.W 9.M. Xi.7 + + t t e O 3 Z ^ z.l.=.=.:.:.q.d.2.e.G.G.'.;X,X.Xs.j # w t @ . 2 s.*X#X7X+X9X3XUXUXUXUXUXUXUXUX",
"UXUXUXUXUXUXUXUXUXUXp.R i.i.|.!.B - o t y r r $ < q Z =.>.k.m.m.~.|.|.*X X].s.) f # o t @ o o j !.|.].].H.E.3XUXUXUXUXUXUXUXUXUX",
"UXUXUXUXUXUXUXUXUXUXUXp.K ,.4._.Q.} 5 $ e r y r e e O : 4 9 q B D D S j 6 2 # o w r t + . 2 @.~.Q.n.d.g.T.L.UXUXUXUXUXUXUXUXUXUX",
"UXUXUXUXUXUXUXUXUXUXUXUX1.E W 4.v.Q.d.) 4 @ e r # t r r r w e r X o X r e r t @ t w . 2 ) !.~.b.k.8.8.6.V.UXUXUXUXUXUXUXUXUXUXUX",
"UXUXUXUXUXUXUXUXUXUXUXUXUX1.=.Y >.>.b.N.9.) 6 - o o e @ # r r @ r r # @ t r e . @ f ) n.~.c.k.8.=.9.6.e.UXUXUXUXUXUXUXUXUXUXUXUX",
"UXUXUXUXUXUXUXUXUXUXUXUXUXUXo.;.H *.R 9.l.c.l.:.` 6 2 - @ o o   o o o @ # ; 6 ` 3.M.~.x.k.! 4.>.,.<.UXUXUXUXUXUXUXUXUXUXUXUXUXUX",
"UXUXUXUXUXUXUXUXUXUXUXUXUXUXUXUX1.Y *.A >.=.9.l.x.l.6.} ' V S S l S ) ' @.7.c.M.x.8.5.,.^ ! ! ;.<.UXUXUXUXUXUXUXUXUXUXUXUXUXUXUX",
"UXUXUXUXUXUXUXUXUXUXUXUXUXUXUXUXUXo.:.Y Y Y H =.^ 4.5.8.k.x.l.l.l.x.z.l.l.8.4.4.>.^ ^ ! ~ >.| UXUXUXUXUXUXUXUXUXUXUXUXUXUXUXUXUX",
"UXUXUXUXUXUXUXUXUXUXUXUXUXUXUXUXUXUXUX$.] Q H Y U H E Y E ! Q =.^ ! ! ^ ~ ^ E E E R ^ *.-.UXUXUXUXUXUXUXUXUXUXUXUXUXUXUXUXUXUXUX",
"UXUXUXUXUXUXUXUXUXUXUXUXUXUXUXUXUXUXUXUXUXUXo.] W H R H U R U U R U R R U E R E T -.o.UXUXUXUXUXUXUXUXUXUXUXUXUXUXUXUXUXUXUXUXUX",
"UXUXUXUXUXUXUXUXUXUXUXUXUXUXUXUXUXUXUXUXUXUXUXUXUXO.[ [ P T P K K K T P L [ | UXUXUXUXUXUXUXUXUXUXUXUXUXUXUXUXUXUXUXUXUXUXUXUXUX",
"UXUXUXUXUXUXUXUXUXUXUXUXUXUXUXUXUXUXUXUXUXUXUXUXUXUXUXUXUXUXUXUXUXUXUXUXUXUXUXUXUXUXUXUXUXUXUXUXUXUXUXUXUXUXUXUXUXUXUXUXUXUXUXUX"
};
