/* XPM */
static char *_3b71cdbeaa646a0db9a18a506be3581[] = {
/* columns rows colors chars-per-pixel */
"32 32 256 2 ",
"   c #001437",
".  c #00153A",
"X  c #031B3D",
"o  c #091E3C",
"O  c #0C213D",
"+  c #13243C",
"@  c #1B2B3C",
"#  c #172B3E",
"$  c #222E3C",
"%  c #23313D",
"&  c #2A343D",
"*  c #2E3A3E",
"=  c #3B3C3C",
"-  c #34383A",
";  c #3C403F",
":  c #45423A",
">  c #48493E",
",  c #504738",
"<  c #534D3D",
"1  c #554835",
"2  c #5F543D",
"3  c #695C3F",
"4  c #041C41",
"5  c #1C2F48",
"6  c #2F3A40",
"7  c #2B3947",
"8  c #353D42",
"9  c #364241",
"0  c #3F4540",
"q  c #2D4058",
"w  c #3B4B63",
"e  c #3F5066",
"r  c #494C44",
"t  c #494F48",
"y  c #434943",
"u  c #504F44",
"i  c #515243",
"p  c #595946",
"a  c #585849",
"s  c #4E5658",
"d  c #655B43",
"f  c #66644B",
"g  c #6B654B",
"h  c #7D6C44",
"j  c #7A6E4C",
"k  c #726E49",
"l  c #6F6F55",
"z  c #716E55",
"x  c #7A775D",
"c  c #66717D",
"v  c #8E6F3B",
"b  c #9E7635",
"n  c #9A763A",
"m  c #836C40",
"M  c #8A7746",
"N  c #83774B",
"B  c #86794F",
"V  c #8A7C4E",
"C  c #877545",
"Z  c #917C4A",
"A  c #867A50",
"S  c #BF852E",
"D  c #BC8D3D",
"F  c #BA8538",
"G  c #C78B2E",
"H  c #CD902F",
"J  c #C58D33",
"K  c #C88E32",
"L  c #C28D3A",
"P  c #CC9234",
"I  c #C4933D",
"U  c #CD963A",
"Y  c #CE983C",
"T  c #D19430",
"R  c #D49837",
"E  c #D19A3D",
"W  c #D89E3C",
"Q  c #DBA13D",
"!  c #9D8145",
"~  c #8C8457",
"^  c #948451",
"/  c #9E8D56",
"(  c #A38546",
")  c #AB8C46",
"_  c #B18E47",
"`  c #B38C4B",
"'  c #B98D42",
"]  c #B79446",
"[  c #BE954B",
"{  c #BE9143",
"}  c #A48E53",
"|  c #AC9656",
" . c #AF9F5B",
".. c #A19356",
"X. c #B69351",
"o. c #B99254",
"O. c #BB9C53",
"+. c #B89258",
"@. c #B09858",
"#. c #B79E58",
"$. c #B9A15D",
"%. c #858362",
"&. c #9C9069",
"*. c #85877B",
"=. c #9A9478",
"-. c #AD9D60",
";. c #BF9D63",
":. c #AFA271",
">. c #B7AC78",
",. c #C39245",
"<. c #CD9E45",
"1. c #CA9E49",
"2. c #C49C4D",
"3. c #D29E44",
"4. c #CFA147",
"5. c #CDA34A",
"6. c #D7A244",
"7. c #DAA342",
"8. c #D3A54B",
"9. c #D6A84C",
"0. c #DCAC4C",
"q. c #DCA549",
"w. c #C4A254",
"e. c #CCA554",
"r. c #CCA950",
"t. c #C1A25A",
"y. c #CDA65A",
"u. c #CCAA5A",
"i. c #D6AC54",
"p. c #DAAD52",
"a. c #D3AB5B",
"s. c #D1A654",
"d. c #CCB15E",
"f. c #DCB255",
"g. c #DBB35C",
"h. c #D5B05A",
"j. c #E0A742",
"k. c #E3AE4B",
"l. c #E6AE45",
"z. c #E3B556",
"x. c #EDBC54",
"c. c #E1B75A",
"v. c #E5BB5C",
"b. c #EABD5C",
"n. c #C29E63",
"m. c #C6A564",
"M. c #CAA760",
"N. c #C9AF65",
"B. c #C4A56E",
"V. c #C3AB6C",
"C. c #C8AB68",
"Z. c #D3AE66",
"A. c #CCB263",
"S. c #CAB26D",
"D. c #D4B364",
"F. c #DBB563",
"G. c #DABD65",
"H. c #D4B66C",
"J. c #D7B86B",
"K. c #DFBD6C",
"L. c #D6B963",
"P. c #C9A770",
"I. c #C3AC71",
"U. c #CAA973",
"Y. c #CCAD7D",
"T. c #CBB575",
"R. c #C3B075",
"E. c #D3BA73",
"W. c #DABE73",
"Q. c #D7B97D",
"!. c #DCBD7C",
"~. c #E2BC62",
"^. c #E3B562",
"/. c #E2BF71",
"(. c #F2C35D",
"). c #DFC065",
"_. c #DFC27D",
"`. c #E5C165",
"'. c #EBC463",
"]. c #EFC864",
"[. c #E6C36B",
"{. c #EBC66A",
"}. c #EECA6A",
"|. c #F1C764",
" X c #F3CA65",
".X c #F2CD6B",
"XX c #FCD067",
"oX c #F5D16D",
"OX c #F9D26B",
"+X c #E5C473",
"@X c #EAC673",
"#X c #E4C47A",
"$X c #EBCB7C",
"%X c #EAC479",
"&X c #F3CE77",
"*X c #EDD07D",
"=X c #F5D373",
"-X c #FBD774",
";X c #FEDB74",
":X c #F5D57B",
">X c #FADA7B",
",X c #BFB287",
"<X c #CEAF82",
"1X c #D6B986",
"2X c #C7BC94",
"3X c #D7C281",
"4X c #DDC38C",
"5X c #D9CA8B",
"6X c #DDC59C",
"7X c #DBCD9E",
"8X c #E4C982",
"9X c #EBCD83",
"0X c #EBCE89",
"qX c #E5CA88",
"wX c #EFD282",
"eX c #EED68D",
"rX c #F3D584",
"tX c #F7DA86",
"yX c #FBDC85",
"uX c #F1D58B",
"iX c #F6DA8C",
"pX c #FADE8D",
"aX c #E3CA9C",
"sX c #ECD293",
"dX c #EBD59A",
"fX c #EDD89E",
"gX c #E4D29C",
"hX c #F1D694",
"jX c #F5DB92",
"kX c #FADE93",
"lX c #F0D69E",
"zX c #F2D99B",
"xX c #FFE984",
"cX c #FFE388",
"vX c #FDE192",
"bX c #FFEA96",
"nX c #FDE39A",
"mX c #FFEA9C",
"MX c #E7D8A9",
"NX c #E1D5A9",
"BX c #F3DDA7",
"VX c #F8DEA2",
"CX c #F2DDB1",
"ZX c #FDE4A3",
"AX c #FFEBA4",
"SX c #FEE6AC",
"DX c #FEEBAD",
"FX c #F6E1A9",
"GX c #FDE6B2",
"HX c #FEE9B4",
"JX c #FEEBB9",
"KX c #FFF2BC",
"LX c #FFF8BA",
"PX c #FEF0B4",
"IX c #FFF6C1",
"UX c None",
/* pixels */
"UXUXUXUXUXUXUXUXUXUXUXUXUXUXU.U.U.P.UXUXUXUXUXUXUXUXUXUXUXUXUXUX",
"UXUXUXUXUXUXUXUXUXUX+.,.,.Y U Y Y U I D ' o.UXUXUXUXUXUXUXUXUXUX",
"UXUXUXUXUXUXUXUX6X1.6.k.0.1._ ( ! ( { 8.q.3.{ o.UXUXUXUXUXUXUXUX",
"UXUXUXUXUXUXUXZ.0X{.s.M > $ O X o o # - d ` p.8.2.UXUXUXUXUXUXUX",
"UXUXUXUXUXUX4X&X$XA %   X 6 u a p r & o X + < O.g.2.n.UXUXUXUXUX",
"UXUXUXUXUXg.&XE.t . # l I.*X>X;XOX.Xv.X.d @ X @ Z '.s.n.UXUXUXUX",
"UXUXUXUXh..Xd.&   a 5XAXmXvXpX>X;X=XoXOX Xw.< 4 O h }.y.UXUXUXUX",
"UXUXUXZ.|.G.*   x DXKXDXZXnXpXyX>X-X=X.X X Xx.m O O V {.w.UXUXUX",
"UXUXP.v.oXi . l DXKXFXlXsX0XnXpXyX>X}.+X`.[. X(.m o + #.v.m.UXUX",
"UXUXa.OX... y pXAXsXqX_.zXZXZXnXvXyX:X:X`.[.b.~.(.2 X : [.u.UXUX",
"UXUXv.}.9 o V.bXhXF.#X0XJXHXSXZXbXpXyX>X}.`.r.b.|.a.$ o } `.m.UX",
"UXM. X .. i yX@Xa.W.0XVXBXGXHXDXAXmXbXtX:X+X).9.9.XXm . < }.u.UX",
"UXa.OXf . / xX{.L J.jXAXZ.t.R.H.D.S.S.u.yX:X+XI p.OXe.+ @ F.f.UX",
"UXf.}.9 + L.'.p.8.p.iXjXE.7XNXH.F.gX4XV.uXyXg.4.p.9. X; o @.v.1X",
"aXc.G.@ & '.|.G p.+XyXuXdXIXKX0X*XDXDXdXhXvX+XG.G v.;Xd . ^ '.Q.",
"aXv.A.+ 8 b.v.K.a.pX:XcXAXPXJXhXpXDXSXSXZXvXuX%X~.}.OXj . B ].!.",
"aXb.A.+ = z.~.$X5.~..XyXvXmXDX8X@XHXGXGXSXZX/.K.F.tX;Xj . B ].!.",
"6Xz.L.@ & 9.v.~.4.9.}.:XtXvXAXD.q.JXJXJXHXlXi.s./.rX>Xg . / ].!.",
"UXf.{.* @ D f.iX8.0.v.=X:XyXbX+X^.GXGXJXJX[.#X8.iX9X&Xt o $.].1X",
"UXa..Xp X v k.F.g.i.v..X;X>XvXeXrXZXVXSXGXb.#X!.%XkX8X# % ).b.UX",
"UXy. X/ X : W 9.vX~.p.}.oX=X_.T.T.3XvXZXHX%X9.jXuXZX&.4 f OXc.UX",
"UXB.v.`.& O b j.i.f.p.b.}.oXoX=X>XtXvXnXeX8XhXSXPXVXs q R.-XH.UX",
"UXUXa.XXV X - K W 3.0.f.'.{.=X:X>XtXwX*XtXSXHXJXKX=.w *.nXwXUXUX",
"UXUXI.z.}.0 4 1 R 7.7.r.e.~.@XrXiXuXrXuXfXGXJXKX,Xw c MXSXaXUXUX",
"UXUXUXy.(.d.$ 4 1 P Q 1.| $.i.g.D.N._.S.-.BXLX>.7 e 2XJXCXUXUXUX",
"UXUXUXUX5.(.#.$ 4 - b E 4.O.@.t.O.t. .N.*XeX%.O 5 :.nXVXUXUXUXUX",
"UXUXUXUXUX8.x.w.; X + , n I <.p.z.~.`.N.~ 6 . * #.=X%X1XUXUXUXUX",
"UXUXUXUXUXUX,.k.p.j % X o @ = < p i 8 + . # k f.x.p.P.UXUXUXUXUX",
"UXUXUXUXUXUXUX,.E k.5.M > % + O o O @ y N r.x.j.8.UXUXUXUXUXUXUX",
"UXUXUXUXUXUXUXUXX.L U Q 9.1.] ) ) ] 5.k.l.Q E [ UXUXUXUXUXUXUXUX",
"UXUXUXUXUXUXUXUXUXUX` F S G T T T T P K L ` UXUXUXUXUXUXUXUXUXUX",
"UXUXUXUXUXUXUXUXUXUXUXUXUXUX<XY.Y.<XUXUXUXUXUXUXUXUXUXUXUXUXUXUX"
};
